<svg xmlns="http://www.w3.org/2000/svg" width="58" height="30" viewBox="0 0 58 30">
    <g fill="none" fill-rule="evenodd">
        <g fill-rule="nonzero">
            <g>
                <g>
                    <path fill="#FFC84C" d="M36.862 11.595h1.611c.14-.012.277-.05.403-.113.19-.106.345-.262.451-.451-.003-.043-.003-.086 0-.129V10.612l.145-.322 2.626-5.043.919-2.03.145.757c.37 1.837.773 3.674 1.16 5.494l.29 1.402c.079.313.26.59.515.79.131.095.279.166.435.209.074.016.152.016.226 0h7.556l-.564.386-2.336 1.611-2.32 1.612-1.16.789-.145.113c-.117.073-.22.166-.306.274-.187.207-.31.465-.355.74-.024.15-.024.303 0 .452-.002.037-.002.075 0 .113V18.378c.42 1.836.854 3.657 1.273 5.477l.322 1.37.097.403-1.08-.725-4.672-2.981-.29-.193h-.112l-.162-.097-.386-.097c-.24-.017-.48.033-.693.145h-.145l-.145.097-1.144.822-2.288 1.61-2.287 1.612-1.128.822-.29.209h-.13c-.075.021-.153-.022-.176-.097-.017-.041-.017-.087 0-.129-.003-.048-.003-.096 0-.145v-.16l.257-.661.484-1.305c.338-.886.66-1.772.983-2.642.03-.032.03-.082 0-.113-.42.838-.838 1.691-1.241 2.53l-.612 1.272-.306.628-.08.161-.081.178c-.066.182-.066.381 0 .564.053.195.172.366.338.483.167.11.364.167.564.161.184-.015.361-.076.515-.177l.29-.194 1.193-.74 2.239-1.273 2.368-1.515 1.176-.757.145-.097.29.194 4.56 3.222 1.144.805.29.21h.08l.178.096c.137.07.283.118.435.145.537.036 1.057-.2 1.385-.628.162-.226.251-.495.258-.773v-.21V25.547l-.145-.693-.29-1.37c-.387-1.836-.757-3.673-1.16-5.493v-.274l1.16-.773 2.336-1.611 2.336-1.612 1.176-.58.29-.209h.08c.1-.094.192-.197.275-.306.333-.526.333-1.198 0-1.724-.192-.282-.477-.487-.806-.58H46.061l-.241-1.063c-.435-1.82-.838-3.641-1.289-5.462l-.322-1.386c-.07-.29-.242-.547-.483-.725-.23-.166-.506-.256-.79-.257-.256.002-.507.074-.725.21-.215.135-.392.324-.515.547l-.097.225v.162l-.129.322-.258.66-.531 1.29-2.047 5.058-.209.548h-1.531l-2.851.258c-3.754.177-7.492.386-11.278.596-.08 0-.145.065-.145.145 0 .08.065.145.145.145h14.098zm20.026 1.047c-.2.452-.524.837-.934 1.112l-2.272 1.61-4.479 3.014 1.096 4.946.274 1.256.145.645c0 .21.096.419.129.644.057.46-.01.928-.194 1.354-.183.425-.471.796-.837 1.079-.383.249-.82.404-1.273.451-.458.067-.925.012-1.354-.161-.215-.08-.416-.195-.596-.338l-.515-.387-1-.725-4.06-3.093-3.753 2.304-1.885 1.16-.95.547c-.32.204-.667.362-1.032.468-.365.088-.746.088-1.111 0-.195-.024-.38-.102-.532-.226-.157-.116-.28-.271-.354-.451-.135-.354-.19-.734-.162-1.112.006-.188.044-.373.113-.548.071-.17.152-.337.242-.499l1.015-1.966c.322-.66.644-1.32.999-1.965-.339.644-.66 1.305-.983 1.982-.322.676-.644 1.32-.967 1.981-.088.16-.164.327-.225.5-.062.17-.1.35-.113.531-.021.364.04.727.177 1.064.145.326.451.553.806.596.35.08.713.08 1.063 0 .348-.11.679-.267.983-.467l.95-.58 1.966-1.177 3.738-2.384h.129l4.189 3.11 1.03.773.516.386c.162.127.341.23.532.307.775.283 1.642.143 2.288-.371.324-.248.58-.575.74-.95.15-.374.205-.777.162-1.177 0-.21 0-.419-.129-.628l-.145-.628-.274-1.273-1.144-5.043c-.018-.075.015-.153.08-.193l4.56-3.094 2.272-1.61c.349-.253.626-.592.805-.983.179-.388.24-.819.178-1.241-.05-.422-.224-.82-.5-1.144-.304-.31-.69-.528-1.111-.628-.21-.025-.42-.025-.629 0h-7.62c-.087.001-.162-.06-.178-.145l-1.111-5.446-.322-1.337c0-.226-.097-.451-.145-.644-.071-.206-.168-.4-.29-.58-.242-.355-.584-.63-.983-.79C43.507.31 43.07.26 42.646.333c-.428.066-.83.25-1.16.532-.337.286-.588.66-.725 1.08L39.746 4.49l-1.998 5.107c-.03.015-.066.015-.096 0l-14.887.983 14.806-1.16 1.95-5.027.966-2.562c.314-.937 1.12-1.625 2.095-1.788.476-.09.969-.039 1.417.145.458.182.85.496 1.128.902.144.197.258.414.339.645 0 .241.112.467.16.693l.307 1.337 1.16 5.22h7.443c.246-.002.491.036.725.113.476.139.901.413 1.225.789.639.77.794 1.834.402 2.755z" transform="translate(-1048 -282) translate(1032 269) translate(16 13.316)"/>
                    <path fill="#FFF" d="M9.038 11.03c.603.549.913 1.349.838 2.16.012.823-.194 1.634-.596 2.352-.403.69-.996 1.25-1.708 1.611-.794.358-1.658.534-2.53.516H3.207l-.564 2.803H0l2.014-10.134H6.46c.914-.08 1.826.166 2.577.693zm-2.223 4.013c.373-.37.572-.878.548-1.402.017-.336-.12-.662-.37-.886-.308-.225-.685-.333-1.064-.306H4.318l-.629 3.11h1.612c.552.028 1.094-.157 1.514-.516zm9.812-2.498l-.306 2.369h-.387c-.576-.005-1.14.17-1.611.5-.46.303-.787.77-.919 1.304l-.757 3.77h-2.626l1.563-7.846h2.578l-.242 1.224c.628-.86 1.641-1.355 2.707-1.32zm2.287 7.927h-2.593l1.61-7.83h2.562l-1.579 7.83zM20.703 9.42c.21.22.32.517.306.821.01.433-.166.85-.483 1.144-.312.31-.737.479-1.177.468-.304.014-.6-.096-.821-.307-.204-.224-.314-.518-.306-.821-.01-.433.166-.85.483-1.144.312-.31.737-.478 1.176-.467.304-.015.601.096.822.306zm13.952 3.899c.49.482.754 1.15.725 1.836.027.252.027.506 0 .758l-.918 4.623h-2.578l.838-4.253c.014-.128.014-.258 0-.387.01-.298-.1-.589-.306-.805-.231-.202-.532-.306-.838-.29-.436-.003-.855.172-1.16.483-.346.349-.581.791-.677 1.273l-.79 3.98h-2.577l.854-4.254c.014-.123.014-.247 0-.37.02-.306-.09-.605-.306-.822-.231-.202-.532-.306-.838-.29-.436-.003-.855.172-1.16.483-.357.34-.594.787-.677 1.273l-.805 3.98h-2.546l1.547-7.895h2.578l-.21 1.047c1.014-1.195 2.741-1.488 4.092-.693.44.299.76.744.903 1.257.594-1.036 1.689-1.685 2.883-1.708.724-.034 1.431.221 1.966.71v.064zm8.41-.242c.564.278 1.034.715 1.353 1.257.33.578.498 1.235.484 1.9.01.805-.202 1.597-.613 2.289-.376.676-.934 1.234-1.61 1.61-.754.382-1.589.575-2.433.565-.719.01-1.43-.144-2.079-.452-.562-.287-1.032-.728-1.353-1.272-.33-.578-.498-1.236-.483-1.901-.01-.805.202-1.596.612-2.288.372-.68.931-1.24 1.61-1.611.756-.374 1.591-.556 2.434-.532.712-.043 1.424.084 2.078.37v.065zm-3.641 2.24c-.376.45-.566 1.025-.532 1.61-.023.45.12.892.403 1.241.273.308.668.48 1.08.467.525.014 1.028-.211 1.369-.612.376-.45.566-1.026.532-1.611.022-.444-.121-.88-.403-1.224-.265-.32-.664-.5-1.08-.484-.515-.03-1.016.171-1.37.548v.064z" transform="translate(-1048 -282) translate(1032 269) translate(16 13.316)"/>
                </g>
            </g>
        </g>
    </g>
</svg>
